<?xml version="1.0" standalone="no"?>
<!DOCTYPE svg PUBLIC "-//W3C//DTD SVG 20010904//EN"
 "http://www.w3.org/TR/2001/REC-SVG-20010904/DTD/svg10.dtd">
<svg version="1.0" xmlns="http://www.w3.org/2000/svg"
 width="215.000000pt" height="215.000000pt" viewBox="0 0 215.000000 215.000000"
 preserveAspectRatio="xMidYMid meet">
<metadata>
Created by potrace 1.11, written by Peter Selinger 2001-2013
</metadata>
<g transform="translate(0.000000,215.000000) scale(0.100000,-0.100000)"
fill="#000000" stroke="none">
<path d="M276 1831 c-4 -5 2 -7 12 -4 11 2 32 -7 51 -23 17 -14 34 -24 37 -21
3 2 -9 16 -26 31 -32 26 -64 34 -74 17z"/>
<path d="M232 1796 c-8 -18 -7 -30 8 -53 17 -28 73 -63 101 -63 8 0 6 -7 -6
-20 -22 -24 -13 -50 17 -50 16 0 19 -3 11 -11 -16 -16 -5 -39 18 -39 10 0 19
-7 19 -15 0 -9 8 -19 18 -22 9 -4 22 -13 28 -21 8 -11 13 -12 18 -4 4 7 2 12
-3 12 -6 0 -11 10 -12 23 0 12 -3 17 -5 10 -8 -17 -34 -4 -34 17 0 13 -5 17
-20 13 -23 -6 -28 15 -8 35 9 9 6 12 -14 12 -37 0 -46 20 -20 41 l22 17 -32
11 c-17 6 -47 23 -66 37 -30 23 -34 31 -29 60 7 40 4 43 -11 10z"/>
<path d="M954 1770 c-28 -4 -80 -17 -115 -29 -178 -58 -387 -66 -475 -17 -26
14 -50 24 -53 20 -12 -12 43 -45 101 -61 53 -15 62 -21 80 -57 11 -22 27 -76
34 -120 19 -107 33 -538 24 -701 -7 -113 -26 -264 -34 -272 -1 -2 -40 -9 -85
-17 -46 -8 -86 -17 -89 -20 -13 -13 8 -16 49 -6 110 26 364 23 462 -6 9 -3 17
-1 17 5 0 12 -63 31 -102 31 -23 0 -27 5 -37 48 -19 92 -33 431 -29 759 2 279
5 335 18 346 8 8 49 25 90 38 101 31 197 31 265 -2 43 -21 54 -33 83 -89 30
-58 33 -72 30 -130 -4 -74 -38 -156 -87 -212 -38 -44 -122 -84 -218 -106 -40
-10 -73 -20 -73 -23 0 -4 22 -9 49 -11 111 -11 228 -105 286 -231 19 -41 57
-144 85 -230 55 -167 94 -239 178 -329 55 -60 93 -78 160 -78 67 0 102 27 102
78 -1 20 -7 48 -15 62 -8 14 -14 37 -15 53 0 31 -15 34 -48 11 -29 -20 -28
-43 3 -103 29 -55 25 -77 -14 -86 -88 -19 -143 68 -176 280 -39 246 -48 286
-79 352 -35 73 -79 124 -129 150 -49 25 -165 62 -218 69 -62 8 -55 20 18 29
137 17 246 68 323 151 103 112 97 240 -17 346 -96 89 -217 126 -349 108z"/>
<path d="M923 1686 c-17 -8 -37 -25 -44 -38 l-12 -23 24 21 c53 47 95 56 123
25 25 -28 17 -55 -18 -59 -25 -3 -28 -1 -23 17 6 23 -3 27 -21 9 -17 -17 -15
-65 4 -72 58 -22 99 8 91 68 l-6 41 21 -25 c25 -31 20 -91 -11 -124 -12 -12
-18 -26 -14 -31 5 -4 2 -5 -5 -1 -14 8 -59 -17 -79 -43 -20 -26 -15 -68 9 -85
31 -22 45 -20 25 2 -25 28 -21 37 33 76 51 36 90 97 90 138 0 29 -33 83 -58
97 -35 19 -96 22 -129 7z"/>
<path d="M480 1493 c0 -15 5 -76 12 -136 11 -95 10 -114 -4 -153 -18 -52 -15
-57 8 -12 14 27 15 52 9 180 -4 81 -11 148 -16 148 -5 0 -9 -12 -9 -27z"/>
<path d="M406 1183 c-4 -10 -1 -22 6 -28 7 -5 13 -23 13 -40 0 -22 5 -30 20
-33 18 -2 18 -2 3 8 -22 14 -23 34 -2 54 14 15 14 16 -5 16 -12 0 -21 5 -21
10 0 6 5 10 10 10 6 0 10 5 10 10 0 17 -27 11 -34 -7z"/>
<path d="M805 1088 c-53 -41 -72 -141 -38 -198 19 -33 55 -53 134 -75 74 -20
88 -36 54 -63 -14 -11 -25 -26 -25 -33 0 -10 3 -10 8 -3 4 6 26 21 50 33 80
41 49 76 -88 101 -35 6 -76 18 -90 25 -29 15 -50 54 -49 88 0 21 1 21 10 -2
13 -33 38 -50 72 -51 43 0 67 17 67 49 0 46 -50 77 -78 49 -18 -18 -15 -27 8
-21 26 7 40 -25 17 -42 -9 -7 -13 -15 -9 -20 4 -4 -7 0 -24 8 -61 31 -60 115
2 147 24 13 32 30 15 30 -4 0 -21 -10 -36 -22z"/>
<path d="M433 1054 c-3 -8 -1 -20 5 -26 7 -7 10 -2 9 16 -2 30 -5 32 -14 10z"/>
<path d="M471 1026 c-21 -25 -19 -70 3 -74 18 -4 18 -3 3 13 -15 15 -15 19 -2
46 17 31 15 38 -4 15z"/>
<path d="M508 851 c4 -136 -9 -179 -62 -212 -17 -10 -26 -19 -19 -19 22 0 72
50 82 83 16 52 19 267 4 267 -5 0 -7 -54 -5 -119z"/>
<path d="M360 634 c0 -23 26 -45 60 -50 26 -4 37 -10 33 -18 -4 -6 1 -4 12 4
17 14 15 15 -24 21 -45 6 -80 28 -45 30 18 0 18 1 -1 9 -24 10 -35 12 -35 4z"/>
<path d="M385 540 c-13 -6 -15 -9 -5 -9 8 0 22 4 30 9 18 12 2 12 -25 0z"/>
<path d="M338 523 c7 -3 16 -2 19 1 4 3 -2 6 -13 5 -11 0 -14 -3 -6 -6z"/>
<path d="M265 510 c-25 -11 1 -11 35 0 20 6 21 8 5 8 -11 0 -29 -3 -40 -8z"/>
<path d="M166 444 c-17 -44 0 -95 35 -107 26 -9 78 20 85 48 7 28 -9 55 -34
55 -12 0 -11 -4 6 -16 12 -8 22 -21 22 -29 0 -42 -80 -62 -100 -26 -14 26 -13
64 2 79 8 8 8 12 1 12 -6 0 -14 -7 -17 -16z"/>
<path d="M210 414 c-11 -12 -11 -18 2 -30 14 -14 15 -12 14 15 -1 36 0 35 -16
15z"/>
</g>
</svg>
