<?xml version="1.0" standalone="no"?>
<!DOCTYPE svg PUBLIC "-//W3C//DTD SVG 1.1//EN" "http://www.w3.org/Graphics/SVG/1.1/DTD/svg11.dtd" >
<svg xmlns="http://www.w3.org/2000/svg">
<metadata></metadata>
<defs>
<font id="kingthings_italiqueregular" horiz-adv-x="775" >
<font-face units-per-em="2048" ascent="1638" descent="-410" />
<missing-glyph horiz-adv-x="267" />
<glyph horiz-adv-x="2048" />
<glyph horiz-adv-x="2048" />
<glyph unicode="&#xd;" horiz-adv-x="390" />
<glyph unicode=" "  horiz-adv-x="267" />
<glyph unicode="&#x09;" horiz-adv-x="267" />
<glyph unicode="&#xa0;" horiz-adv-x="267" />
<glyph unicode="!" horiz-adv-x="371" d="M23 1166l24 -32l85 104l-2 -1064l174 138v1116l81 90l-25 29zM129 -38l1 -218l174 138v242z" />
<glyph unicode="&#x22;" horiz-adv-x="494" d="M-1 1045l34 -27l248 277q-49 122 -120 182l-154 -162q91 -87 92 -158zM219 1045l34 -27l248 277q-49 122 -120 182l-154 -162q91 -87 92 -158z" />
<glyph unicode="#" horiz-adv-x="1061" d="M8 529l878 27l46 34l-845 31zM98 809l878 27l46 34l-845 31zM220 108l14 -77l334 1175l-98 103zM520 108l14 -77l334 1175l-98 103z" />
<glyph unicode="$" horiz-adv-x="636" d="M38 414q-38 -134 116.5 -243t176.5 -169l23 -13q187 369 225 471t26.5 165t-93 142t-181.5 150.5t-99 158.5h240l120 223l-264 -1q-67 -118 -145 -227t-93.5 -170t22 -119.5t205.5 -191t131 -272.5l-47 -96q-27 102 -151.5 184t-67.5 185l-23 18zM327 1512l1 -1869 l62 114v1880z" />
<glyph unicode="%" horiz-adv-x="836" d="M41.5 838.5q63.5 -179.5 178.5 -269.5q138 230 177.5 316t18.5 191t-185 223q-253 -281 -189.5 -460.5zM141 1148q187 -104 172 -362l-34 -58q-183 208 -138 420zM150 -242l14 -77l504 1645l-98 103zM415 585zM441.5 248.5q63.5 -179.5 178.5 -269.5q138 230 177.5 316 t18.5 191t-185 223q-253 -281 -189.5 -460.5zM541 558q187 -104 172 -362l-34 -58q-183 208 -138 420zM775 5zM795 -5z" />
<glyph unicode="&#x26;" horiz-adv-x="926" d="M34 248.5q52 -187.5 277 -263.5l198 231q139 -189 228 -226l226 278l-26 24l-91 -106q-70 19 -235 234l298 394l-19 11l-212 -2q98 213 -12 290l-11 1q121 -85 -32 -290l-155 -191l19 -15q55 45 150 36l96 3l-161 -207q-406 518 -368 628l64 63q112 -94 149.5 -198 t-21.5 -199l16 -22l130 235q12 96 -31.5 170t-170.5 172q-182 -174 -229 -290t9 -250l39 -78q-177 -245 -125 -432.5zM184.5 317q-119.5 163 2.5 331q144 -204 282 -393l-67 -87q-98 -14 -217.5 149z" />
<glyph unicode="'" horiz-adv-x="262" d="M-1 1047l34 -27l248 277q-49 122 -120 182l-154 -162q91 -87 92 -158z" />
<glyph unicode="(" horiz-adv-x="297" d="M29.5 612.5q-18.5 -217.5 27 -492.5t161.5 -490l90 127q-374 793 -6 1695l-21 15q-96 -182 -164.5 -409.5t-87 -445z" />
<glyph unicode=")" horiz-adv-x="308" d="M24 1341q374 -793 6 -1695l21 -15q96 182 164.5 409.5t87 445t-27 492.5t-161.5 490z" />
<glyph unicode="*" horiz-adv-x="355" d="M1 1129l114 12l-71 -72l18 -103l90 125l-8 -132l73 -42l-11 176l94 -131l18 99l-75 80l96 -1l33 89l-134 -19l65 83l-17 81l-79 -108l8 155l-65 -45l4 -113l-78 115l-19 -80l63 -88h-88z" />
<glyph unicode="+" horiz-adv-x="795" d="M28 508l278 12v-354l131 172l20 192l185 20l142 140h-321l11 316l-160 -148v-171h-160z" />
<glyph unicode="," horiz-adv-x="263" d="M-18 -108l34 -27l248 277q-49 122 -120 182l-154 -162q91 -87 92 -158z" />
<glyph unicode="-" d="M16 409l16 -13q49 76 143 72h396q113 21 186 247l-9 16q-81 -94 -177 -91h-333q-158 -13 -222 -231z" />
<glyph unicode="." horiz-adv-x="274" d="M-10 162q91 -87 112 -188l162 148q-49 142 -120 202z" />
<glyph unicode="/" horiz-adv-x="485" d="M-40 -242l104 -97l414 1665l-98 103z" />
<glyph unicode="0" horiz-adv-x="649" d="M45.5 471.5q124.5 -321.5 281.5 -480.5q220 412 281.5 565.5t29 341.5t-291.5 400q-425 -505 -300.5 -826.5zM207 721q78 -75 96 -161l138 126q-42 122 -102 173zM259 1087q337 -241 191 -749l-63 -121q-371 491 -128 870z" />
<glyph unicode="1" horiz-adv-x="448" d="M7 -3h344l138 194l-287 2q80 64 136 194l3 905l-26 18l-276 -289l29 -14l85 83l-1 -887z" />
<glyph unicode="2" horiz-adv-x="617" d="M39 -2l371 2l192 236l-340 2q305 370 342.5 578.5t-234.5 498.5q-217 -215 -279 -364t-20.5 -272.5t147.5 -186.5l116 176q-257 230 -59 471q99 -101 158 -300t-394 -841z" />
<glyph unicode="3" horiz-adv-x="653" d="M0 1038l26 -22l70 86h302l-256 -346l32 -12q68 87 167 29t150 -224t-97 -353q-45 267 -221 455l-163 -197q171 -112 286 -486q193 283 277.5 408.5t56.5 307.5q-25 196 -256 307l218 305l-397 -1z" />
<glyph unicode="4" horiz-adv-x="653" d="M-30 234l28 -32q41 89 280 68v-81l-163 -191l302 2l169 202l-30 15q-81 -59 -222 -35q72 43 85 92h156l109 221l-14 24q-104 -67 -246 -60v279q-17 116 48 205l-11 24l-191 -233l2 -281l-134 1q215 846 309 914l-8 31l-229 -197q-163 -898 -240 -968z" />
<glyph unicode="5" horiz-adv-x="603" d="M8 323q0 -125 100 -202.5t116 -140.5q70 55 211 271t135.5 320.5t-58 156t-73 102.5t-10.5 137l-247 -255l-1 376h235l138 183l-12 27h-323l-155 -206v-527l32 -12q41 76 150 178q154 -217 158 -326.5t-40 -206.5q-45 73 -124.5 124.5t-70.5 144.5l55 62l-26 27z" />
<glyph unicode="6" horiz-adv-x="555" d="M28 530q14 -126 46.5 -221.5t210.5 -337.5q187 286 226 406t24.5 240.5t-73 195t-96.5 103.5l-194 -324q-38 199 13 424.5t181 374.5l-25 17q-121 -126 -205 -321.5t-103 -313t-5 -243.5zM190 547l90 152q66 -59 103 -145.5t30.5 -184t-63.5 -173.5q-54 64 -95 160.5 t-65 190.5z" />
<glyph unicode="7" horiz-adv-x="567" d="M9 1022l44 -19q4 81 132 76l239 1q-346 -659 -312 -837.5t180 -242.5l209 263l-17 17q-76 -62 -128.5 -36.5t-86.5 113.5t118.5 492.5t204.5 410.5v20h-432z" />
<glyph unicode="8" horiz-adv-x="539" d="M35 289.5q65 -190.5 231 -303.5q198 254 233.5 348.5t6.5 210.5t-214 309.5t-99 321.5q231 -109 118 -327l30 -24q285 364 -53 489q-299 -284 -233.5 -437.5t198 -302t146.5 -229.5t-22 -145l-21 -21q-303 320 -167 450l-28 27q-191 -176 -126 -366.5z" />
<glyph unicode="9" horiz-adv-x="561" d="M0 214q128 19 233 -244q121 118 200 300t98 292t5 227.5t-46.5 206.5t-190.5 315q-207 -267 -246 -379t-24.5 -224.5t88 -182t111.5 -96.5l164 302q38 -185 16 -350.5t-86 -234.5q-37 192 -174 236zM150.5 939q6.5 91 63.5 162q54 -60 95 -150t65 -178l-90 -141 q-66 55 -103 135.5t-30.5 171.5z" />
<glyph unicode=":" horiz-adv-x="280" d="M-10 162q91 -87 112 -188l162 148q-49 142 -120 202zM-10 532q91 -87 112 -188l162 148q-49 142 -120 202z" />
<glyph unicode=";" horiz-adv-x="266" d="M-18 -108l34 -27l248 277q-49 122 -120 182l-154 -162q91 -87 92 -158zM-10 532q91 -87 112 -188l162 148q-49 142 -120 202z" />
<glyph unicode="&#x3c;" horiz-adv-x="654" d="M24 559q306 -111 452 -362l108 142q-112 222 -385 304l413 290l-8 8l-579 -347z" />
<glyph unicode="=" horiz-adv-x="819" d="M26 359l16 -13q52 76 150 72l413 -30q96 46 195 247l-10 16q-85 -94 -184 -91h-348q-131 -48 -232 -201zM26 569l16 -13q52 76 150 72l413 -30q98 48 195 247l-10 16q-85 -94 -184 -91h-348q-134 -48 -232 -201z" />
<glyph unicode="&#x3e;" horiz-adv-x="644" d="M44 215l8 -8l579 347l1 35q-306 111 -452 362l-108 -142q112 -222 385 -304z" />
<glyph unicode="?" horiz-adv-x="494" d="M-64 922q160 -34 125 -199l124 157q24 124 -108 176l76 99q137 -97 182 -302.5t-104 -364.5l-104 -79l-1 -319l178 161l-1 257q130 127 175 280.5t-43 336.5t-223 268zM129 -38l1 -218l174 138v242z" />
<glyph unicode="@" horiz-adv-x="1060" d="M38.5 532.5q-24.5 -141.5 18.5 -282t355 -402.5l263 313l-25 18q-132 -189 -298 -34t-191.5 360.5t51 332t171.5 183.5t217 14.5t216 -162t96.5 -232.5t-54.5 -196.5t-116.5 -47t-46.5 406.5l56 118h-281q-183 -168 -207.5 -332t183.5 -365l142 142q30 -127 130 -141 q252 246 312.5 411t-65 338t-380.5 266q-171 -115 -264.5 -200t-175.5 -226t-106.5 -282.5zM398.5 536.5q-88.5 191.5 23.5 243.5h202l-53 -82l-1 -298q-83 -55 -171.5 136.5z" />
<glyph unicode="A" horiz-adv-x="836" d="M-80 466l21 -13q57 68 120 72l119 1l-40 -315l-187 -213l308 1l191 234l-22 14q-37 -50 -161 -50q-39 0 -87 5q81 56 118 170l21 162l161 2q53 51 143 227l-10 14q-47 -65 -102 -65h-9l-170 1l40 322l93 98q199 -317 199 -600q0 -38 -4 -76q-30 -316 -328 -671 q114 -12 234 -120q93 -84 180 -84q25 0 50 7l149 198l-44 28q-15 -55 -57 -55q-46 0 -122 64q-117 99 -195 98q-20 0 -37 -6q208 216 293 476q37 113 37 233q0 155 -62 320q-110 292 -173 405l-216 -261q3 30 3 58q0 121 -60 200l-190 -222l12 -28q34 31 55 31q30 0 34 -63 l-32 -352l-108 -13z" />
<glyph unicode="B" horiz-adv-x="819" d="M-23 40q136 0 136 177v5v538q0 177 121 229q-158 -38 -165 -224l1 -540v-13q0 -157 -93 -172zM58 1041l26 -21l86 78q30 -3 32 -136l-2 -748l-140 -214h394l158 176q114 112 170 240q28 64 28 124t-28 115q-55 112 -214 163q145 130 151 245v9q0 112 -147 256l-192 -206 q1 116 -68 206zM256 209q108 46 125 214l1 212q30 36 68 36q48 -1 110 -59q110 -104 115 -190q1 -11 1 -22q0 -68 -23 -108q-26 -46 -101 -83h-296zM384 719v343l79 84q81 -26 115 -124q10 -29 10 -59q0 -69 -56 -141q-99 -15 -148 -103z" />
<glyph unicode="C" horiz-adv-x="588" d="M20 638q-1 -17 -1 -35q0 -127 55 -251q62 -142 312 -356l224 348l-28 21l-81 -124q-124 15 -240 207q-106 177 -107 362q0 18 2 34q10 202 72 262h200q-45 -70 -45 -134q0 -78 68 -147l7 12q-48 53 -48 113q0 72 70 152l141 198l-300 -1q-86 -84 -156.5 -212.5 t-103.5 -216.5t-41 -232z" />
<glyph unicode="D" horiz-adv-x="762" d="M-2 1061l33 -5l35 50h186q-73 -60 -104 -182v-731l-141 -196h384q364 355 363 636q0 25 -2 47q-33 298 -208 566q66 75 152 75q45 0 96 -21l-23 12q-51 26 -102 27q-150 0 -294 -234q161 -210 248 -482q23 -73 23 -138q0 -179 -174 -304l-274 2q78 61 132 185l5 737 l148 184l-325 -3zM267 216q136 1 136 178v5v328q0 177 121 229q-158 -38 -165 -224l1 -330v-13q0 -157 -93 -173z" />
<glyph unicode="E" horiz-adv-x="629" d="M20 638q-1 -17 -1 -35q0 -127 55 -251q62 -142 312 -356l224 348l-28 21l-81 -124q-102 9 -210.5 148.5t-143.5 302.5h193q-14 -30 -14 -60q0 -69 72 -141l13 7q-57 63 -57 120q0 46 38 87l124 175l-288 -1l-93 -125q31 292 93 352l270 -1l116 194h-293 q-86 -84 -156.5 -212.5t-103.5 -216.5t-41 -232z" />
<glyph unicode="F" horiz-adv-x="688" d="M-42 90q136 1 136 178v5v538q0 177 121 229q-159 -38 -165 -224l1 -540v-13q0 -157 -93 -173zM3 -1l283 1l122 203l-228 -2q100 48 128 141v355l117 -1q-19 -46 -19 -81q0 -82 107 -104h18q-99 24 -99 97q0 37 25 87l126 162l-206 -1l-70 -100l1 244l130 164 q2 -126 186 -198l138 143q-189 81 -211 259l-234 -290v17q0 149 -84 225l-227 -283l30 -24l69 83q43 -2 43 -98v-13v-768z" />
<glyph unicode="G" horiz-adv-x="680" d="M10 638q-1 -18 -1 -36q0 -126 60 -250q68 -142 252 -369l167 193v-31q0 -159 -20 -213q-21 -58 -177 -242q15 2 31 2q98 0 236 -64q131 -59 219 -59q20 0 38 3l110 168l-15 9q-22 -22 -64 -22q-60 0 -164 47q-148 66 -209 66q-10 0 -18 -2q188 138 188 257v7l1 582 q6 110 89 140l-11 21l-301 -1l-140 -235h38l34 58h189q-45 -40 -64 -118v-313q-21 -39 -52 -39q-63 0 -165 169q-127 208 -127 392q0 37 6 73q30 215 99 275h296l159 254l-26 10l-46 -70l-281 -1q-95 -84 -172.5 -212.5t-113 -216.5t-45.5 -232zM187 412q136 0 136 177v5 v268q0 177 121 229q-158 -38 -165 -224l1 -270v-13q0 -157 -93 -172z" />
<glyph unicode="H" horiz-adv-x="873" d="M-58 529l9 -24q66 93 189 93h18v-382l-145 -216l283 1l122 201l-228 -2q100 48 128 141v265h157q-19 -46 -19 -81q0 -83 107 -105h18q-99 24 -99 97q0 37 25 87l70 82l2 80l-262 -1v312v25q0 165 -74 217l-227 -283l30 -24l69 83q43 -2 43 -98v-13v-224zM453 0l283 1 l122 201l-228 -2q100 48 128 141l-1 736v25q0 165 -74 217l-227 -283l30 -24l69 83q43 -2 43 -98v-13v-768zM702 218q136 1 136 178v5v538q0 177 121 229q-159 -38 -165 -224l1 -540v-13q0 -157 -93 -173z" />
<glyph unicode="I" horiz-adv-x="443" d="M-69 148q136 0 136 177v5v538q0 177 121 229q-158 -38 -165 -224l1 -540v-13q0 -157 -93 -172zM-32 1061l33 -5l35 50h186q-73 -60 -104 -182v-731l-141 -196h334l134 185l-279 1q78 61 132 185l4 737h91l165 218l-17 20l-50 -54l-365 -3z" />
<glyph unicode="J" horiz-adv-x="800" d="M-36 487q5 -82 56 -171.5t128 -179.5q63 -72 63 -117q0 -11 -4 -20l17 -7l167 169q57 41 114 125t63 222l4 597h181l165 218l-17 20l-50 -54l-675 -3l-158 -225l33 -5l35 50h406q-73 -60 -104 -162v-538q6 -63 6 -109q0 -70 -13 -104q-161 220 -194 268t-41 121 q-1 11 -1 21q0 56 37 86l-20 24zM504 150q136 1 136 178v5v538q0 177 121 229q-159 -38 -165 -224l1 -540v-13q0 -157 -93 -173z" />
<glyph unicode="K" horiz-adv-x="868" d="M-29 78q136 1 136 178v5v538q0 177 121 229q-158 -38 -165 -224l1 -540v-13q0 -157 -93 -173zM34 -3l312 3l130 178h-261q85 71 130 202v938l110 114l-31 23l-380 -380l30 -28l91 86l-2 -950zM366 646q4 1 8 1q110 -1 225 -505q119 -522 255 -576l185 198l-18 24l-71 -63 q-82 19 -188.5 522t-241.5 569l348 483l-264 -1l-205 -262l35 -16q50 101 220 101q16 0 32 -1l-320 -422v-52z" />
<glyph unicode="L" horiz-adv-x="756" d="M-12 1061l33 -5l35 50h186q-73 -60 -104 -182v-731l-141 -196h584l190 306q-187 85 -187 253q0 11 1 22l68 70l-32 15l-174 -187q16 -225 193 -292l-454 -1q78 61 132 185l4 737h71l148 184l-395 -3zM268 210q136 1 136 178v5v538q0 177 121 229q-159 -38 -165 -224 l1 -540v-13q0 -157 -93 -173z" />
<glyph unicode="M" horiz-adv-x="1099" d="M-44 99q136 0 136 177v5v538q0 177 121 229q-159 -38 -165 -224l1 -540v-13q0 -157 -93 -172zM-44 963l27 -31l95 109h6q45 0 45 -122q0 -33 -3 -74l1 -643l-116 -203l275 1l104 200l-220 -1q132 111 131 209v621q1 29 1 56q0 199 -60 236zM313 922l115 139q51 0 51 -138 q0 -35 -3 -78l1 -653l-106 -193l280 1l111 200h-239q117 74 128 207v307v202l138 165q4 1 7 1q49 0 49 -173q0 -33 -2 -73v-366q1 -27 1 -54q0 -344 -226 -703q41 11 79 11q88 0 159 -57q102 -81 184 -98l192 255l-34 24l-79 -96q-5 -1 -10 -1q-57 0 -142 81q-74 71 -170 71 q-23 0 -47 -4q276 206 275 513q0 23 -1 46l2 460v10q0 270 -104 375l-271 -314q1 34 1 64q0 231 -60 268l-276 -328z" />
<glyph unicode="N" horiz-adv-x="843" d="M-8 69q136 0 136 177v5v538q0 177 121 229q-159 -38 -165 -224l1 -540v-13q0 -157 -93 -172zM-4 893l37 -41l85 129q3 1 7 1q43 0 42 -113v-24v-443v-222l-126 -181l263 -1l113 197l-209 2q93 51 133 217v542l82 109q103 -21 162 -159t65 -304v-10q0 -169 -188 -595 l258 2l152 255l-20 22q-36 -90 -154 -90q-45 0 -101 13q99 193 173 387q35 91 34 188q0 109 -44 225q-83 219 -228 304l-191 -274q1 29 1 56q0 199 -60 236z" />
<glyph unicode="O" horiz-adv-x="627" d="M60 392q154 -368 248 -414q214 426 274 584q39 103 39 221q0 63 -11 131q-32 194 -283 412q-309 -415 -309 -723q1 -113 42 -211zM243 1108q230 -283 230 -562q0 -84 -21 -167l-85 -168q-209 339 -209 598q0 166 85 299z" />
<glyph unicode="P" horiz-adv-x="731" d="M-46 70q136 1 136 178v5v538q0 177 121 229q-159 -38 -165 -224l1 -540v-13q0 -157 -93 -173zM-18 0h326l168 187l-292 -5q92 35 135 161v156q39 -53 99 -77q37 57 147 183q87 95 134 205q20 47 19 96q0 68 -36 141q-64 126 -190 266l-174 -212q1 15 1 29q0 125 -71 185 l-228 -268l19 -33l72 76q35 -9 35 -152v-23l-1 -682q-14 -146 -163 -233zM320 1019l68 84q183 -183 183 -350q0 -33 -7 -66q-34 -69 -83 -69q-13 0 -25 4q-66 20 -88 129l-47 -84z" />
<glyph unicode="Q" horiz-adv-x="664" d="M38 484q104 -312 267 -465l-165 -310l37 -32l39 76q80 -6 276 -107q138 -70 216 -70q34 0 56 13l235 354l-38 21l-87 -122q-39 -11 -83 -11q-100 0 -225 57q-183 82 -230 94q218 461 278 626q39 105 39 217q0 62 -11 125q-34 179 -289 370q-336 -419 -336 -703 q0 -70 21 -133zM245 1088q241 -139 241 -487q0 -85 -15 -184l-60 -178q-238 279 -238 552q0 149 72 297z" />
<glyph unicode="R" horiz-adv-x="915" d="M-36 122q136 1 136 178v5v538q0 177 121 229q-159 -38 -165 -224l1 -540v-13q0 -157 -93 -173zM7 1041l26 -21l86 78q30 -3 33 -136l-3 -748l-140 -214h274l148 209h-226q108 46 125 214l1 92q43 55 83 55q36 0 70 -42q72 -90 133 -396q34 -111 121 -142l212 183l-19 29 l-68 -58q-78 5 -116 221t-163 315l-67 -2q172 161 172 313q0 11 -1 23q-14 164 -167 314l-192 -206q1 116 -68 206zM333 579v483l79 84q80 -28 110 -220q5 -32 5 -60q0 -148 -125 -228z" />
<glyph unicode="S" horiz-adv-x="629" d="M38 414q-8 -26 -8 -52q0 -104 124 -191q131 -92 131 -149q0 -10 -4 -20l23 -13q237 369 275 471q29 78 30 134q1 17 -3 31q-12 63 -94 142q52 57 52 122q0 73 -68 155q37 -62 37 -116q0 -68 -61 -122q-41 40 -141 111.5t-99 158.5h240l120 223l-264 -1 q-67 -118 -145 -227q-77 -109 -93 -170q-5 -18 -5 -35q1 -42 27 -84q38 -58 225 -202q-25 -56 -25 -105q0 -72 54 -130q-18 48 -18 91q0 57 32 106q78 -62 78 -155q0 -33 -10 -69l-47 -96q-27 102 -151 184q-85 56 -86 122q0 30 18 63l-23 18z" />
<glyph unicode="T" horiz-adv-x="776" d="M-2 1061l33 -5l35 50h356q-73 -60 -104 -182v-731l-141 -196h334l134 185l-279 1q78 61 132 185l2 188q41 -34 82 -34l116 68q-37 -26 -75 -26l-121 69v472h181l165 218l-17 20l-50 -54l-625 -3zM142 150q136 1 136 178v5v538q0 177 121 229q-159 -38 -165 -224l1 -540 v-13q0 -157 -93 -173z" />
<glyph unicode="U" horiz-adv-x="872" d="M-42 1069l12 -14q26 32 216 32q44 0 97 -2q-134 -169 -204 -365q-30 -83 -30 -168q0 -118 56 -242q96 -214 275 -309l191 274q1 -170 119 -272l218 393l-29 39l-85 -129q-49 6 -49 125q0 13 1 28l-1 443v10q0 236 -144 400l-183 -264l19 -37l54 74q80 -103 80 -319v-176 v-242l-82 -109q-11 -2 -21 -2q-86 1 -168 141q-92 158 -96 335q0 3 -1 6q0 177 232 539l-332 1z" />
<glyph unicode="V" horiz-adv-x="805" d="M4 967l20 -28l72 88q58 0 58 -179v-12l-1 -529q9 -230 146 -309l144 269l167 206q-29 120 -29 220q0 176 89 290q128 164 128 304q0 13 -2 25q-12 150 -166 204l-196 -244l20 -36l54 68q59 -2 91 -135q8 -33 8 -68q0 -103 -72 -217q-95 -152 -99 -283q0 -13 -1 -26 q0 -114 28 -188l-83 -115q-54 43 -54 211q0 32 2 68v428q-6 238 -82 311zM284 652q136 0 136 177v5v538q0 177 121 229q-159 -38 -165 -224l1 -540v-13q0 -157 -93 -172z" />
<glyph unicode="W" horiz-adv-x="1187" d="M-2 968l20 -28l72 88q58 0 58 -179v-12l-1 -529q9 -230 146 -309l210 355v97l-118 -199q-65 62 -65 240q0 28 2 60v428q-6 238 -82 311zM366 964l20 -28l72 88q58 0 58 -179v-12l-1 -529q9 -230 146 -309q157 296 331 475q-29 120 -29 220q0 176 89 290q128 164 128 304 q0 13 -2 25q-12 150 -166 204l-196 -244l20 -36l54 68q59 -2 91 -135q8 -33 8 -68q0 -102 -72 -216q-95 -152 -99 -284q0 -13 -1 -26q0 -114 28 -188l-103 -145q-54 68 -54 241q0 32 2 68v428q-6 238 -82 311zM654 652q136 0 136 177v5v538q0 177 121 229 q-159 -38 -165 -224l1 -540v-13q0 -157 -93 -172z" />
<glyph unicode="X" horiz-adv-x="851" d="M14 1057l33 -20q28 53 56 53q27 0 53 -51l88 -191q-54 -86 -92 -144t-82 -197q-27 -86 -28 -174q0 -53 10 -106q26 -141 150 -247l220 403l-20 47l-121 -218q-93 93 -109 245q-2 20 -2 40q0 137 96 305l303 -705q37 -96 91 -115l206 224l-16 33q-42 -55 -76 -55 q-33 0 -60 51l-291 698l127 168q66 -63 82 -175q2 -16 2 -32q0 -94 -81 -180l12 -45q148 203 161 285q8 49 7 100q0 35 -3 71q-9 88 -73 198l-253 -345l-92 196q-39 96 -103 120z" />
<glyph unicode="Y" horiz-adv-x="766" d="M-30 1071l26 -21q34 53 132 53q30 0 66 -5q-135 -140 -135 -329q0 -184 108 -279q109 -95 185 -126q107 111 168 226q3 -39 3 -77q0 -110 -28 -209l-143 -213l24 -15q31 33 58 33q41 0 74 -75q33 -73 33 -141q0 -49 -17 -95q-4 -1 -9 -1q-40 0 -101 92q-69 103 -129 127 q-20 7 -38 7q-38 0 -69 -33q-48 -48 -150 -179l16 -16q30 21 62 21q59 0 122 -74q96 -113 172 -144l121 133q172 239 191 321q5 19 5 39q0 69 -53 155q-53 54 -116 63l151 325l1 461q3 168 108 199l-288 -2l-168 -217l32 -12q21 45 132 45q24 0 52 -2q-41 -81 -48 -155v-302 q-30 -45 -75 -89q-240 174 -240 355q0 21 3 42q31 203 168 340l-249 -2z" />
<glyph unicode="Z" horiz-adv-x="701" d="M17 4l20 -16q53 48 137 48q58 0 128 -22q77 -24 132 -24q70 0 106 39l168 241l-13 20q-57 -73 -114 -73q-3 1 -5 1q-60 4 -159 44q-57 24 -115 23q-42 0 -84 -12l144 301l94 -2q-36 -45 -36 -89q0 -63 74 -125l18 3q-64 46 -65 102q0 49 49 105l166 203v37 q-61 -50 -207 -50h-17q199 516 282 543l-486 -3l-106 -258l24 -11q10 55 70 55q8 0 18 -1l266 -2l-128 -318l-152 2l-124 -201l8 -25q35 37 181 37h8z" />
<glyph unicode="[" horiz-adv-x="458" d="M-38 -420l370 1l166 207h-351l1 1630l169 1l151 199l-302 -1l-130 -190v-1750z" />
<glyph unicode="\" horiz-adv-x="419" d="M-40 1326l98 103l420 -1671l-104 -97z" />
<glyph unicode="]" horiz-adv-x="493" d="M-38 1410h351l-1 -1630l-169 -1l-151 -199l302 1l130 190v1750l74 97l-370 -1z" />
<glyph unicode="_" horiz-adv-x="976" d="M2 -406l21 -8q65 45 188 43h521q149 12 245 146l-12 10q-106 -56 -233 -54h-438q-208 -8 -292 -137z" />
<glyph unicode="`" horiz-adv-x="395" d="M-6 1218q182 -197 270 -186l137 154q-126 -22 -290 153z" />
<glyph unicode="a" horiz-adv-x="629" d="M16 386q4 -67 20 -124.5t63 -130.5t115 -135l141 171v50l-53 -69q-82 74 -122 216q-27 94 -27 173q0 41 7 79q21 108 82 115h280q9 124 87 155l-10 14l-265 1q-140 -148 -212 -227.5t-91 -149.5q-15 -57 -15 -112q-1 -13 0 -26zM361 194q3 -152 105 -198l189 238l-22 19 q-46 -72 -72.5 -72.5t-35.5 72.5l-2 474l-162 -163v-370z" />
<glyph unicode="b" horiz-adv-x="604" d="M-86 1075l30 -28l87 95l2 -739v-10q0 -283 221 -393q172 189 254 302t94 221q2 16 2 33q0 92 -58 182q-68 106 -130 199l-201 -216v627l110 134l-31 23zM215 430v86q-1 14 -1 27q0 115 79 194q135 -182 151 -326q2 -18 2 -36q0 -121 -100 -205q-127 61 -131 260zM218 894 q136 0 136 177v5v538q0 177 121 229q-159 -38 -165 -224l1 -540v-13q0 -157 -93 -172z" />
<glyph unicode="c" horiz-adv-x="566" d="M13 377q11 -68 44.5 -133t81 -133.5t138.5 -134.5l251 316l-25 25l-126 -157q-87 58 -169 199q-68 117 -68 214q0 21 3 39q17 112 102 118q55 -24 64 -80q7 -19 7 -39q0 -51 -52 -101l23 -15l200 219q97 81 98 149q0 5 -1 9q-7 72 -117 131l-10 -4q104 -68 104 -126 q0 -13 -5 -25q-27 -68 -60 -82q3 6 3 13q0 47 -118 145q-207 -171 -273 -237t-86 -154q-13 -57 -13 -105q0 -27 4 -51z" />
<glyph unicode="d" horiz-adv-x="607" d="M18 346q8 -116 86 -208.5t194 -152.5l121 191l115 170q50 84 50 199q0 120 -154 365q-149 237 -148 343v7q4 106 43 144l38 54l-17 25q-186 -227 -202 -333q-2 -13 -1 -27q0 -103 101 -278q-150 -195 -192 -289q-36 -80 -35 -174q0 -18 1 -36zM163 586q22 112 104 219 q107 -167 149 -274q29 -76 29 -146q0 -29 -5 -57q-17 -96 -64 -127q-122 35 -178 154q-41 86 -41 168q0 32 6 63zM272 1140q136 0 136 177v5v258q0 177 121 229q-159 -38 -165 -224l1 -260v-13q0 -157 -93 -172z" />
<glyph unicode="e" horiz-adv-x="504" d="M6 382q4 -68 34.5 -132t78 -132.5t138.5 -134.5l264 329l-28 21l-138 -171q-85 64 -157 204q-59 114 -58 208q0 22 3 43q17 111 102 119q69 -46 69 -119q0 -15 -3 -31l-139 -147l21 -39l14 20q42 -18 88 -18q131 0 293 146h-18q-131 -106 -231 -106q-53 0 -97 29l245 248 q2 13 2 26q0 93 -108 184q-207 -171 -273 -236.5t-86 -153.5q-16 -72 -16 -131q-1 -13 0 -26z" />
<glyph unicode="f" horiz-adv-x="384" d="M-265 -270h11q143 0 211 -146q266 244 306 434l1 720l52 1l128 162l-193 1l1 326l122 1q-8 -39 -8 -71q0 -100 74 -125l16 5q-71 20 -71 95q0 40 21 97l140 176l-190 -4l-267 -299l-1 -247l-161 -180l24 -14q40 52 129 52h16l1 -668q1 -32 1 -60q0 -163 -34 -215 q-56 136 -174 136q-10 0 -21 -1z" />
<glyph unicode="g" horiz-adv-x="654" d="M-18 -258q179 -156 334 -165q250 145 294 237q26 58 26 95q0 23 -10 38q-27 40 -142 99q-27 18 -27 50q0 46 54 121l-38 19q-158 -237 -158 -291t197 -165q-42 -48 -97 -48h-5q-59 3 -184 64q-66 33 -66 85q0 44 50 102l-26 14zM50 282q140 -257 228 -290 q195 298 250 409q35 72 35 149q0 41 -11 84q-29 123 -83 179q144 145 144 256q0 79 -71 141l-112 -185q38 -62 38 -115q0 -43 -27 -80l-146 107q-282 -292 -282 -508q0 -79 37 -147zM167 740q244 -123 244 -421q0 -22 -1 -46l-50 -74q-205 215 -205 433q0 54 12 108z" />
<glyph unicode="h" horiz-adv-x="667" d="M-86 1065l30 -28l87 96l2 -850v-9q0 -167 151 -284l192 219l-20 26l-67 -73q-74 64 -74 218v126v143l87 94q108 -50 108 -186v-15l-1 -264q-4 -29 -4 -57q0 -146 116 -236l207 230l-20 25l-75 -79q-45 10 -45 91q0 12 1 26q7 169 7 280q0 115 -8 169q-16 106 -172 200 l-201 -216v647l110 134l-31 23zM218 894q136 0 136 177v5v538q0 177 121 229q-159 -38 -165 -224l1 -540v-13q0 -157 -93 -172z" />
<glyph unicode="i" horiz-adv-x="430" d="M-16 585l30 -28l107 126l-18 -360q-1 -234 151 -333l192 219l-20 26l-57 -63q-84 91 -84 238v10l20 478l90 114l-31 23zM22 902l34 -27l351 412l-31 27l-102 -122q-19 92 -90 152l-154 -162q91 -87 92 -168z" />
<glyph unicode="j" horiz-adv-x="362" d="M-6 585l30 -28l87 106v-610q-8 -297 -109 -351l17 -27q278 125 278 356v19l-2 818l110 134l-31 23zM2 902l34 -27l351 412l-31 27l-102 -122q-19 92 -90 152l-154 -162q91 -87 92 -168z" />
<glyph unicode="k" horiz-adv-x="792" d="M-34 1086l30 -28l87 106l2 -870v-9q0 -167 151 -284l192 229l-24 23l-63 -70q-74 54 -74 208v1008l90 104l-31 23zM238 894q136 0 136 177v5v538q0 177 121 229q-159 -38 -165 -224l1 -540v-13q0 -157 -93 -172zM288 488l1 -39q78 -7 143 -198t188 -259l202 252l-28 21 l-64 -79q-77 16 -134.5 196t-161.5 206l79 86q50 73 50 144q0 56 -31 110l-134 -164q30 -36 30 -82q0 -20 -6 -44q-20 -74 -134 -150z" />
<glyph unicode="l" horiz-adv-x="386" d="M-54 1086l30 -28l87 106l2 -870v-9q0 -167 151 -284l192 229l-24 23l-63 -70q-74 54 -84 208v998l100 114l-31 23zM218 894q136 0 136 177v5v538q0 177 121 229q-159 -38 -165 -224l1 -540v-13q0 -157 -93 -172z" />
<glyph unicode="m" horiz-adv-x="1125" d="M-60 645l28 -28l88 92q45 -4 45 -81q0 -13 -1 -28l-8 -317v-18q0 -161 135 -275l189 189l-19 26l-55 -53q-73 70 -73 210v18l3 126l5 153l85 88q96 -5 96 -181q0 -14 -1 -28l-6 -256q-1 -22 -1 -43q0 -175 98 -254l213 200l-18 25l-74 -63q-39 14 -39 107q0 16 1 34 q14 191 15 313q0 91 -8 143q-18 122 -162 183l-197 -206q1 151 -86 201zM650 711l6 -55l78 91q96 -5 96 -181q0 -14 -1 -28l-7 -256q-1 -22 -1 -43q0 -175 98 -254l213 200l-18 25l-73 -63q-39 14 -39 104q0 17 1 37q15 205 15 323q0 74 -6 113q48 77 139 77q57 0 132 -30 q-83 54 -154 54q-68 0 -126 -50q-13 91 -156 152z" />
<glyph unicode="n" horiz-adv-x="772" d="M-20 645l28 -28l88 92q45 -4 45 -81q0 -13 -1 -28l-8 -317v-18q0 -161 135 -275l189 189l-19 26l-55 -53q-73 70 -73 210v18l3 126l6 173l84 78q96 -14 96 -191q0 -14 -1 -28l-6 -256q-1 -22 -1 -43q0 -175 98 -254l213 200l-18 25l-74 -63q-39 14 -39 107q0 16 1 34 q14 191 15 313q0 91 -8 143q-18 122 -162 183l-197 -196q1 141 -86 191z" />
<glyph unicode="o" horiz-adv-x="564" d="M46 282q140 -258 227 -291q195 298 249 409q36 72 36 156q0 44 -10 91q-29 136 -258 289q-281 -291 -281 -507q0 -78 37 -147zM162 428q-29 78 -28 149q0 92 47 173q67 -4 93 -44q-61 -57 -61 -140q0 -111 108 -268q-71 162 -71 251q0 94 81 103q96 -112 96 -255 q0 -52 -13 -109l-68 -108q-118 70 -184 248z" />
<glyph unicode="p" horiz-adv-x="636" d="M-107 -332q136 0 136 177v5v538q0 177 121 229q-158 -38 -165 -224l1 -540v-13q0 -157 -93 -172zM-78 -389h326l168 187l-292 -5q61 32 116 163l4 134q36 -62 91 -94q51 60 124 179t130 238q32 66 32 132q0 54 -21 107q-46 121 -104 176q-29 27 -29 62q0 32 27 71l-2 23 l-234 -272q1 15 1 29q0 125 -71 185l-228 -268l19 -33l72 76q35 -9 35 -152v-23l-1 -682q-14 -146 -163 -233zM260 630l48 64q172 -172 172 -365q0 -32 -5 -65q-38 -37 -72 -37q-14 0 -27 5q-45 21 -68 130l-47 -84z" />
<glyph unicode="q" horiz-adv-x="580" d="M62 274q149 -253 193 -268l-165 -289l37 -24l39 57q80 -4 186 -80q75 -54 134 -54q25 0 48 10l155 276l-38 15l-37 -76q-24 -9 -49 -9q-56 0 -119 44q-93 62 -180 71q218 349 268 461q31 68 31 144q0 50 -13 104q-34 135 -269 280q-263 -292 -263 -505q0 -85 42 -157z M163 736q258 -120 258 -438v-22l-46 -75q-221 215 -221 442q0 46 9 93z" />
<glyph unicode="r" horiz-adv-x="583" d="M-16 635l28 -28l83 96l2 -420v-9q0 -167 143 -284l186 231l-23 24l-64 -81q-69 62 -69 216v126v143l60 80q40 -108 129 -139l-52 -65l25 -23l184 227q92 90 93 197q0 63 -33 132q11 -51 11 -96q0 -141 -107 -214q-89 12 -130 179l-180 -216q0 197 -42 211z" />
<glyph unicode="s" horiz-adv-x="571" d="M19 248q195 -246 274 -246q21 0 33 17l36 43q154 186 184 236q23 37 23 71q1 12 -3 23q-10 44 -72 110t-165.5 125t-102.5 92h224l112 180q31 36 31 66q0 58 -116 95l-5 2q102 -42 102 -92q0 -33 -45 -70h-213q-63 -81 -135.5 -157t-86.5 -118q-4 -12 -5 -25 q0 -29 25 -58q35 -42 187 -154q131 -97 131 -151q0 -9 -4 -17l-15 -27q-13 -18 -34 -18q-70 0 -232 195l25 36l-14 16z" />
<glyph unicode="t" horiz-adv-x="571" d="M-13 656l26 -25q57 80 169 89l1 -437v-9q0 -167 141 -284l192 229l-20 26l-67 -73q-74 54 -74 208v347h85q-10 -42 -10 -82q0 -118 94 -210l12 11q-68 79 -67 173q0 52 20 109l109 168h-243v156l110 140l-31 23z" />
<glyph unicode="u" horiz-adv-x="701" d="M-46 567l18 -25l111 113v-457q11 -145 167 -213l185 216v-8q0 -143 136 -203l179 257l-28 28l-61 -86q-59 13 -59 147v515l80 87l-22 21l-354 -386l22 -23l106 118l1 -405l-80 -98q-99 5 -98 209v470l78 94l-20 20zM212 432q136 0 136 177v5v538q0 177 121 229 q-159 -38 -165 -224l1 -540v-13q0 -157 -93 -172z" />
<glyph unicode="v" horiz-adv-x="661" d="M-56 585l30 -28l90 116l-1 -350q-1 -234 151 -333l192 219q150 144 179 291v388l110 124l-31 23l-380 -450l30 -28l97 126l6 -195q1 -23 1 -45q0 -137 -43 -222l-46 -49q-84 91 -84 238v10v468l110 124l-31 23z" />
<glyph unicode="w" horiz-adv-x="1034" d="M-36 865l30 -28l107 126h9q157 0 157 -48q0 -52 -184 -161v-431q-1 -234 151 -333l182 199l-10 46l-57 -63q-84 91 -84 238v10l4 379q183 152 183 248q0 91 -167 131l90 114l-31 23zM294 585l30 -28l90 116l-1 -350q-1 -234 151 -333l192 219q150 144 179 291v388 l110 124l-31 23l-380 -450l30 -28l97 126l6 -195q1 -23 1 -45q0 -137 -43 -222l-46 -49q-84 91 -84 238v10v468l110 124l-31 23z" />
<glyph unicode="x" horiz-adv-x="667" d="M26 294q-7 -24 -7 -48q0 -117 154 -255l161 234l-22 37l-54 -77q-112 121 -112 221q0 71 56 131q205 -414 235 -459q29 -56 91 -78l154 237l-15 26q-30 -57 -59 -57q-22 0 -44 32l-68 155q62 131 134 241q22 33 21 72q0 91 -119 216l-199 -172l20 -30l75 64 q90 -114 90 -219q0 -72 -42 -140l-222 446q-14 37 -30 37q-12 0 -24 -21l-167 -176l20 -34q24 32 45 32q20 0 38 -29l49 -101q-119 -149 -159 -285z" />
<glyph unicode="y" horiz-adv-x="711" d="M-27 -253q128 -1 257 -157l136 122q226 163 256 356v813l80 97l-22 21l-354 -416l22 -23l106 118l1 -405l-80 -98q-99 5 -98 209v490l78 104l-20 20l-361 -421l18 -25l111 113v-457q11 -145 167 -213l185 216q1 -24 1 -46q0 -260 -115 -425q-69 132 -247 175zM234 478 q136 0 136 177v5v538q0 177 121 229q-159 -38 -165 -224l1 -540v-13q0 -157 -93 -172zM403 1569q62 -59 76 -128l110 101q-33 96 -81 137zM498 1415q62 -59 76 -128l110 101q-33 96 -81 137zM568 1616q62 -59 76 -128l110 101q-33 96 -81 137z" />
<glyph unicode="z" horiz-adv-x="537" d="M-4 12l22 -12q67 50 129 50q32 0 62 -14q89 -38 127 -47q-3 -26 -3 -49q0 -149 134 -194l14 14q-109 34 -109 142q0 42 17 96l146 264l-26 10q-26 -58 -91 -58q-33 0 -76 14q-74 26 -122 27q-34 0 -54 -14l84 133h144l140 201q-62 -45 -151 -45q-30 0 -63 5l192 359 l-13 10h-346l-147 -243l20 -19l48 71l284 -1l-84 -177l-125 -1l-133 -198q57 42 148 42q18 0 38 -2z" />
<glyph unicode="{" horiz-adv-x="455" d="M23 559q83 -136 82 -251q9 -639 107 -708l133 169l-10 24q-83 -113 -104 448v152q-15 133 -82 176q78 62 72 247v294q7 315 79 426l-11 26q-189 -235 -184 -501v-242q1 -140 -82 -260z" />
<glyph unicode="}" horiz-adv-x="348" d="M3 1393l10 -24q83 113 104 -448v-152q15 -133 82 -176q-78 -62 -72 -247v-294q-7 -315 -79 -426l11 -26q189 235 184 501v242q-1 140 82 260q-83 136 -82 251q-9 639 -107 708z" />
<glyph unicode="&#xa2;" horiz-adv-x="750" d="M6.5 376q4.5 -69 34.5 -133t77.5 -132.5t138.5 -134.5l251 316l-25 25l-126 -157q-86 58 -158.5 199t-55.5 252.5t102 118.5q55 -24 64 -80q27 -71 -45 -140l23 -15l200 219q56 71 -106 210q-207 -171 -273 -237t-86 -154t-15.5 -157zM227 1132l1 -1509l62 114v1520z" />
<glyph unicode="&#xa3;" horiz-adv-x="712" d="M3 -1l12 -22q205 75 355.5 -80t332.5 -137l118 244l-23 12q-100 -110 -312 70.5t-320 114.5q102 48 118 141l27 205h108q-60 -155 81 -186h17q-138 36 -68 184l116 162l-236 -1l58 394l120 164q2 -126 135 -198l127 143q-137 81 -158 259l-215 -290q4 162 -78 242 l-209 -283l27 -24l64 83q43 -2 40 -111l-52 -379l-44 1l-108 -165h140l-39 -325z" />
<glyph unicode="&#xa9;" horiz-adv-x="526" d="M18 944q-12 -78 17.5 -177.5t103.5 -176.5l58 46q-241 286 -4 611l-13 5q-62 -66 -106 -148t-56 -160zM129.5 939q-3.5 -56 20.5 -110.5t121 -137.5l87 135l-11 8l-31 -48q-49 6 -93.5 80.5t-40.5 153t28 101.5h77q-39 -61 9 -109l3 5q-41 45 8 102l55 77h-116 q-34 -33 -61 -82.5t-39.5 -84t-16 -90.5zM333 1266q241 -286 4 -611l13 -5q62 66 106 148t56 160t-17.5 177.5t-103.5 176.5z" />
<glyph unicode="&#xad;" d="M16 409l16 -13q49 76 143 72h396q113 21 186 247l-9 16q-81 -94 -177 -91h-333q-158 -13 -222 -231z" />
<glyph unicode="&#xae;" horiz-adv-x="631" d="M18 944q-12 -78 17.5 -177.5t103.5 -176.5l58 46q-241 286 -4 611l-13 5q-62 -66 -106 -148t-56 -160zM150 1092l9 -8l32 29q11 -1 12 -50l-1 -276l-51 -79h101l54 77h-83q40 17 46 79v34q30 38 57 4.5t49 -146.5q13 -41 45 -52l78 68l-7 10l-25 -21q-29 2 -43 81.5 t-60 116.5l-25 -1q68 64 63 124.5t-61 115.5l-71 -76q0 43 -25 76zM266 921v179l29 31q30 -10 41 -81t-44 -107zM433 1266q241 -286 4 -611l13 -5q62 66 106 148t56 160t-17.5 177.5t-103.5 176.5z" />
<glyph unicode="&#xbc;" horiz-adv-x="1026" d="M37 563h267l107 111h-223q62 37 105 111l3 515l-20 10l-214 -164l22 -8l66 47v-505zM210 -242l14 -77l504 1645l-98 103zM415 585zM415 585zM440 134l23 -18q35 51 234 39v-47l-136 -110l251 1l141 117l-25 8q-67 -33 -185 -20q61 25 71 53h130l91 128l-12 14 q-86 -39 -205 -35v161q-14 67 40 119l-9 14l-159 -135l2 -162h-112q179 489 258 528l-7 18l-191 -114q-136 -518 -200 -559zM775 5zM775 5zM795 -5zM795 -5z" />
<glyph unicode="&#xbd;" horiz-adv-x="987" d="M40 563h265l107 111h-222q62 37 105 111l2 515l-19 10l-213 -164l22 -8l66 47l-1 -505zM210 -242l14 -77l504 1645l-98 103zM415 585zM509 -2l313 1l162 134l-287 1q258 210 289.5 328t-198.5 283q-183 -122 -235 -206.5t-17 -154.5t124 -106l98 100q-217 130 -50 267 q84 -57 133.5 -170t-332.5 -477zM775 5zM795 -5z" />
<glyph unicode="&#xbe;" horiz-adv-x="1046" d="M10 1148l19 -12l51 49h222l-188 -197l24 -8q49 50 122 17t110 -128t-71 -202q-33 153 -162 260l-120 -112q126 -64 210 -278q141 162 203 233.5t42 175.5q-18 112 -188 175l160 175l-291 -1zM250 -242l14 -77l504 1645l-98 103zM415 585zM415 585zM450 134l23 -18 q35 51 234 39v-47l-136 -110l251 1l141 117l-25 8q-67 -33 -185 -20q61 25 71 53h130l91 128l-12 14q-86 -39 -205 -35v161q-14 67 40 119l-9 14l-159 -135l2 -162h-112q179 489 258 528l-7 18l-191 -114q-136 -518 -200 -559zM775 5zM775 5zM795 -5zM795 -5z" />
<glyph unicode="&#xc7;" horiz-adv-x="729" d="M20.5 630q-8.5 -146 53.5 -289.5t312 -359.5l224 352l-28 21l-81 -125q-124 15 -240 209.5t-105.5 399.5t72.5 266h200q-101 -158 23 -284l7 12q-106 119 22 268l141 200l-300 -1q-86 -85 -156.5 -215t-103 -219t-41 -235zM338 -286q0 -48 38.5 -78t44.5 -54 q27 21 81.5 104.5t52.5 124t-22.5 60t-28.5 39.5t-4 53l-95 -99v146l-45 1v-203l12 -5q16 29 58 69q59 -84 60.5 -126t-15.5 -80q-17 28 -47.5 48t-27.5 56l21 24l-10 10z" />
<glyph unicode="&#xd7;" horiz-adv-x="860" d="M120 839q64 -222 220 -304l-206 -360l15 -18l330 457l1 35q-175 111 -258 362zM426 489q175 -111 258 -362l102 172q-64 222 -220 304l166 330l-15 8l-290 -417z" />
<glyph unicode="&#xe7;" horiz-adv-x="541" d="M13 377q11 -68 44.5 -133t81 -133.5t138.5 -134.5l251 316l-25 25l-126 -157q-86 58 -168.5 199t-65.5 252.5t102 118.5q55 -24 64 -80q27 -71 -45 -140l23 -15l200 219q104 86 97 158t-117 131l-10 -4q126 -83 99 -150.5t-60 -82.5q21 46 -115 158q-207 -171 -273 -237 t-86 -154t-9 -156zM228 -286q0 -48 38.5 -78t44.5 -54q27 21 81.5 104.5t52.5 124t-22.5 60t-28.5 39.5t-4 53l-95 -99v146l-45 1v-203l12 -5q16 29 58 69q59 -84 60.5 -126t-15.5 -80q-17 28 -47.5 48t-27.5 56l21 24l-10 10z" />
<glyph unicode="&#xf7;" horiz-adv-x="1105" d="M26 489l22 -13q72 76 208 72l571 -30q136 48 270 247l-14 16q-117 -94 -254 -91h-482q-185 -48 -321 -201zM393 385q91 -87 112 -188l162 148q-49 142 -120 202zM473 859q91 -87 112 -188l162 148q-49 142 -120 202z" />
<glyph unicode="&#x2000;" horiz-adv-x="921" />
<glyph unicode="&#x2001;" horiz-adv-x="1843" />
<glyph unicode="&#x2002;" horiz-adv-x="921" />
<glyph unicode="&#x2003;" horiz-adv-x="1843" />
<glyph unicode="&#x2004;" horiz-adv-x="614" />
<glyph unicode="&#x2005;" horiz-adv-x="460" />
<glyph unicode="&#x2006;" horiz-adv-x="307" />
<glyph unicode="&#x2007;" horiz-adv-x="307" />
<glyph unicode="&#x2008;" horiz-adv-x="230" />
<glyph unicode="&#x2009;" horiz-adv-x="368" />
<glyph unicode="&#x200a;" horiz-adv-x="102" />
<glyph unicode="&#x2010;" d="M16 409l16 -13q49 76 143 72h396q113 21 186 247l-9 16q-81 -94 -177 -91h-333q-158 -13 -222 -231z" />
<glyph unicode="&#x2011;" d="M16 409l16 -13q49 76 143 72h396q113 21 186 247l-9 16q-81 -94 -177 -91h-333q-158 -13 -222 -231z" />
<glyph unicode="&#x2012;" d="M16 409l16 -13q49 76 143 72h396q113 21 186 247l-9 16q-81 -94 -177 -91h-333q-158 -13 -222 -231z" />
<glyph unicode="&#x2013;" horiz-adv-x="1058" d="M16 409l22 -13q68 76 198 72h547q156 21 257 247l-12 16q-112 -94 -245 -91h-460q-219 -13 -307 -231z" />
<glyph unicode="&#x2014;" horiz-adv-x="2082" d="M16 409l44 -13q136 76 395 72h1095q312 21 514 247l-25 16q-224 -94 -489 -91h-920q-437 -13 -614 -231z" />
<glyph unicode="&#x2018;" horiz-adv-x="299" d="M-1 1201q49 -122 120 -182l154 162q-91 87 -92 158l100 112l-34 27z" />
<glyph unicode="&#x2019;" horiz-adv-x="260" d="M-1 1047l34 -27l248 277q-49 122 -120 182l-154 -162q91 -87 92 -158z" />
<glyph unicode="&#x201c;" horiz-adv-x="514" d="M-1 1201q49 -122 120 -182l154 162q-91 87 -92 158l100 112l-34 27zM219 1201q49 -122 120 -182l154 162q-91 87 -92 158l100 112l-34 27z" />
<glyph unicode="&#x201d;" horiz-adv-x="514" d="M-1 1047l34 -27l248 277q-49 122 -120 182l-154 -162q91 -87 92 -158zM219 1047l34 -27l248 277q-49 122 -120 182l-154 -162q91 -87 92 -158z" />
<glyph unicode="&#x2026;" horiz-adv-x="805" d="M-10 162q91 -87 112 -188l162 148q-49 142 -120 202zM260 162q91 -87 112 -188l162 148q-49 142 -120 202zM530 162q91 -87 112 -188l162 148q-49 142 -120 202z" />
<glyph unicode="&#x202f;" horiz-adv-x="368" />
<glyph unicode="&#x205f;" horiz-adv-x="460" />
<glyph unicode="&#x2122;" horiz-adv-x="725" d="M-13 973l11 -11q25 35 73 39l1 -189q-2 -75 61 -127l83 99l-9 11l-29 -31q-32 23 -32 90v150h45q-24 -42 3 -83l5 5q-24 39 5 78l47 73h-105v67l48 61l-14 10zM196 968l12 -12l38 40q23 -2 19 -47l-3 -137q-4 -75 58 -127l82 82l-9 11l-23 -23q-34 32 -32 99l1 54l3 67 l36 38q45 -3 41 -91l-2 -111q-6 -90 42 -128l92 87l-8 10l-32 -27q-20 7 -16 61q10 144 2 197t-69 79l-86 -89q1 66 -37 87zM503 997l2 -24l34 40q45 -3 41 -91l-3 -111q-5 -90 42 -128l92 87l-8 10l-31 -27q-21 7 -17 61q11 144 4 188q34 55 117 21q-70 46 -121 2 q-5 39 -67 65z" />
<glyph unicode="&#xe000;" horiz-adv-x="920" d="M0 0v920h920v-920h-920z" />
</font>
</defs>
</svg>
